<svg width="143" height="42" viewBox="0 0 143 42" fill="none" xmlns="http://www.w3.org/2000/svg">
<path d="M11.9531 33.3281C9.72396 33.3281 7.80208 32.8594 6.1875 31.9219C4.58333 30.9844 3.34896 29.6667 2.48438 27.9688C1.61979 26.2604 1.1875 24.2604 1.1875 21.9688V21.2969C1.1875 19.0885 1.60938 17.1302 2.45312 15.4219C3.29688 13.7135 4.50521 12.3698 6.07812 11.3906C7.65104 10.4115 9.52604 9.92188 11.7031 9.92188C13.2344 9.92188 14.6615 10.1458 15.9844 10.5938C17.3073 11.0312 18.474 11.6771 19.4844 12.5312V17.9062H16.2812L15.8438 14.4219C15.5 14.1719 15.1198 13.9583 14.7031 13.7812C14.2969 13.6042 13.849 13.4688 13.3594 13.375C12.8802 13.2812 12.3594 13.2344 11.7969 13.2344C10.4635 13.2344 9.32292 13.5677 8.375 14.2344C7.42708 14.8906 6.69792 15.8177 6.1875 17.0156C5.6875 18.2135 5.4375 19.6302 5.4375 21.2656V21.9688C5.4375 23.625 5.70312 25.0573 6.23438 26.2656C6.76562 27.474 7.52083 28.4062 8.5 29.0625C9.48958 29.7083 10.6667 30.0312 12.0312 30.0312C12.7083 30.0312 13.3802 29.9583 14.0469 29.8125C14.7135 29.6562 15.3073 29.4531 15.8281 29.2031L16.2812 26H19.4531V31.3281C18.5781 31.901 17.4948 32.3802 16.2031 32.7656C14.9115 33.1406 13.4948 33.3281 11.9531 33.3281ZM29.8125 33.3281C28.1562 33.3281 26.7396 32.9635 25.5625 32.2344C24.3854 31.5052 23.4792 30.4948 22.8438 29.2031C22.2083 27.901 21.8906 26.4062 21.8906 24.7188V24.3906C21.8906 22.7135 22.2083 21.2292 22.8438 19.9375C23.4792 18.6458 24.3854 17.6302 25.5625 16.8906C26.7396 16.151 28.1458 15.7812 29.7812 15.7812C31.4271 15.7812 32.8385 16.151 34.0156 16.8906C35.1927 17.6198 36.0938 18.6302 36.7188 19.9219C37.3542 21.2135 37.6719 22.7031 37.6719 24.3906V24.7188C37.6719 26.4062 37.3542 27.901 36.7188 29.2031C36.0938 30.4948 35.1927 31.5052 34.0156 32.2344C32.8385 32.9635 31.4375 33.3281 29.8125 33.3281ZM29.8125 30.0625C30.6354 30.0625 31.3125 29.8385 31.8438 29.3906C32.3854 28.9427 32.7865 28.3177 33.0469 27.5156C33.3073 26.7031 33.4375 25.7708 33.4375 24.7188V24.3906C33.4375 23.349 33.3073 22.4271 33.0469 21.625C32.7865 20.8229 32.3854 20.1979 31.8438 19.75C31.3021 19.2917 30.6146 19.0625 29.7812 19.0625C28.9479 19.0625 28.2604 19.2917 27.7188 19.75C27.1875 20.1979 26.7917 20.8229 26.5312 21.625C26.2708 22.4271 26.1406 23.349 26.1406 24.3906V24.7188C26.1406 25.7812 26.2708 26.7135 26.5312 27.5156C26.7917 28.3177 27.1927 28.9427 27.7344 29.3906C28.276 29.8385 28.9688 30.0625 29.8125 30.0625ZM46.5469 33.3281C45.2031 33.3281 44.0469 32.9844 43.0781 32.2969C42.1094 31.6094 41.3646 30.6458 40.8438 29.4062C40.3333 28.1562 40.0781 26.7031 40.0781 25.0469V24.7188C40.0781 22.9375 40.3333 21.375 40.8438 20.0312C41.3646 18.6875 42.1094 17.6458 43.0781 16.9062C44.0469 16.1562 45.1979 15.7812 46.5312 15.7812C47.4896 15.7812 48.3229 15.9688 49.0312 16.3438C49.7396 16.7083 50.349 17.2344 50.8594 17.9219V11.6719L48.4062 11.2031V8.625H50.8594H55.1094V29.9688L57.375 30.4375V33H51.4375L51.1094 30.9531C50.5781 31.7344 49.9375 32.3281 49.1875 32.7344C48.4375 33.1302 47.5573 33.3281 46.5469 33.3281ZM47.7812 30C48.4792 30 49.0833 29.849 49.5938 29.5469C50.1042 29.2448 50.526 28.8125 50.8594 28.25V20.9375C50.5365 20.3646 50.1198 19.9167 49.6094 19.5938C49.099 19.2708 48.5 19.1094 47.8125 19.1094C47.0104 19.1094 46.349 19.349 45.8281 19.8281C45.3177 20.2969 44.9375 20.9531 44.6875 21.7969C44.4479 22.6302 44.3281 23.6042 44.3281 24.7188V25.0469C44.3281 26.5781 44.599 27.7865 45.1406 28.6719C45.6823 29.5573 46.5625 30 47.7812 30ZM66.9688 33.3281C65.3646 33.3281 63.9635 32.974 62.7656 32.2656C61.5781 31.5469 60.6562 30.5625 60 29.3125C59.3438 28.0521 59.0156 26.6146 59.0156 25V24.3594C59.0156 22.7031 59.3281 21.2292 59.9531 19.9375C60.5885 18.6354 61.474 17.6198 62.6094 16.8906C63.7448 16.151 65.0573 15.7812 66.5469 15.7812C68.0781 15.7812 69.3646 16.0885 70.4062 16.7031C71.4479 17.3073 72.2344 18.1771 72.7656 19.3125C73.2969 20.4479 73.5625 21.8125 73.5625 23.4062V25.7656H63.4219L63.3906 25.8594C63.4323 26.6719 63.6146 27.3958 63.9375 28.0312C64.2604 28.6562 64.7135 29.151 65.2969 29.5156C65.8802 29.8802 66.5885 30.0625 67.4219 30.0625C68.3073 30.0625 69.1146 29.9479 69.8438 29.7188C70.5833 29.4896 71.2865 29.151 71.9531 28.7031L73.1719 31.3438C72.4948 31.9062 71.6354 32.3802 70.5938 32.7656C69.5521 33.1406 68.3438 33.3281 66.9688 33.3281ZM63.4688 22.875H69.5625V22.4688C69.5625 21.7604 69.4583 21.1458 69.25 20.625C69.0417 20.0938 68.7188 19.6823 68.2812 19.3906C67.8542 19.099 67.2969 18.9531 66.6094 18.9531C65.9844 18.9531 65.4479 19.125 65 19.4688C64.5521 19.8021 64.1979 20.2604 63.9375 20.8438C63.6771 21.4167 63.5052 22.0677 63.4219 22.7969L63.4688 22.875Z" fill="#218DDB"/>
<path d="M78.625 10.25H82.125L88.7031 27.7969L95.2656 10.25H98.7656L90.0781 33H87.2969L78.625 10.25ZM77.0312 10.25H80.3594L80.9375 25.4375V33H77.0312V10.25ZM97.0312 10.25H100.375V33H96.4531V25.4375L97.0312 10.25ZM114.188 29.6094V21.5469C114.188 20.9427 114.078 20.4219 113.859 19.9844C113.641 19.5469 113.307 19.2083 112.859 18.9688C112.422 18.7292 111.87 18.6094 111.203 18.6094C110.589 18.6094 110.057 18.7135 109.609 18.9219C109.161 19.1302 108.812 19.4115 108.562 19.7656C108.312 20.1198 108.188 20.5208 108.188 20.9688H104.438C104.438 20.3021 104.599 19.6562 104.922 19.0312C105.245 18.4062 105.714 17.849 106.328 17.3594C106.943 16.8698 107.677 16.4844 108.531 16.2031C109.385 15.9219 110.344 15.7812 111.406 15.7812C112.677 15.7812 113.802 15.9948 114.781 16.4219C115.771 16.849 116.547 17.4948 117.109 18.3594C117.682 19.2135 117.969 20.2865 117.969 21.5781V29.0938C117.969 29.8646 118.021 30.5573 118.125 31.1719C118.24 31.776 118.401 32.3021 118.609 32.75V33H114.75C114.573 32.5938 114.432 32.0781 114.328 31.4531C114.234 30.8177 114.188 30.2031 114.188 29.6094ZM114.734 22.7188L114.766 25.0469H112.062C111.365 25.0469 110.75 25.1146 110.219 25.25C109.688 25.375 109.245 25.5625 108.891 25.8125C108.536 26.0625 108.271 26.3646 108.094 26.7188C107.917 27.0729 107.828 27.474 107.828 27.9219C107.828 28.3698 107.932 28.7812 108.141 29.1562C108.349 29.5208 108.651 29.8073 109.047 30.0156C109.453 30.224 109.943 30.3281 110.516 30.3281C111.286 30.3281 111.958 30.1719 112.531 29.8594C113.115 29.5365 113.573 29.1458 113.906 28.6875C114.24 28.2188 114.417 27.776 114.438 27.3594L115.656 29.0312C115.531 29.4583 115.318 29.9167 115.016 30.4062C114.714 30.8958 114.318 31.3646 113.828 31.8125C113.349 32.25 112.771 32.6094 112.094 32.8906C111.427 33.1719 110.656 33.3125 109.781 33.3125C108.677 33.3125 107.693 33.0938 106.828 32.6562C105.964 32.2083 105.286 31.6094 104.797 30.8594C104.307 30.099 104.062 29.2396 104.062 28.2812C104.062 27.3854 104.229 26.5938 104.562 25.9062C104.906 25.2083 105.406 24.625 106.062 24.1562C106.729 23.6875 107.542 23.3333 108.5 23.0938C109.458 22.8438 110.552 22.7188 111.781 22.7188H114.734ZM125.688 19.3125V33H121.922V16.0938H125.516L125.688 19.3125ZM130.859 15.9844L130.828 19.4844C130.599 19.4427 130.349 19.4115 130.078 19.3906C129.818 19.3698 129.557 19.3594 129.297 19.3594C128.651 19.3594 128.083 19.4531 127.594 19.6406C127.104 19.8177 126.693 20.0781 126.359 20.4219C126.036 20.7552 125.786 21.1615 125.609 21.6406C125.432 22.1198 125.328 22.6562 125.297 23.25L124.438 23.3125C124.438 22.25 124.542 21.2656 124.75 20.3594C124.958 19.4531 125.271 18.6562 125.688 17.9688C126.115 17.2812 126.646 16.7448 127.281 16.3594C127.927 15.974 128.672 15.7812 129.516 15.7812C129.745 15.7812 129.99 15.8021 130.25 15.8438C130.521 15.8854 130.724 15.9323 130.859 15.9844ZM141.75 16.0938V18.8438H132.219V16.0938H141.75ZM134.969 11.9531H138.734V28.3281C138.734 28.849 138.807 29.25 138.953 29.5312C139.109 29.8021 139.323 29.9844 139.594 30.0781C139.865 30.1719 140.182 30.2188 140.547 30.2188C140.807 30.2188 141.057 30.2031 141.297 30.1719C141.536 30.1406 141.729 30.1094 141.875 30.0781L141.891 32.9531C141.578 33.0469 141.214 33.1302 140.797 33.2031C140.391 33.276 139.922 33.3125 139.391 33.3125C138.526 33.3125 137.76 33.1615 137.094 32.8594C136.427 32.5469 135.906 32.0417 135.531 31.3438C135.156 30.6458 134.969 29.7188 134.969 28.5625V11.9531Z" fill="#218DDB"/>
</svg>
